# xmcd CD database file
#
# Track frame offsets:
#	150
#	32990
#	62330
#	83817
#	113140
#	144955
#	165877
#	191607
#	218047
#	234287
#	265967
#
# Disc length: 3829 seconds
#
# Revision: 1
# Processed by: cddbd v1.4PL0 Copyright (c) Steve Scherf et al.
# Submitted via: CDex 1.50Beta6
#
DISCID=880ef30b
DTITLE=Enrico Pieranunzi Marc Johnson Joey Baron - play Morricone
DYEAR=2001
DGENRE=Jazz
TTITLE0=ADDIO FRATELLO CRUDELE
TTITLE1=MIO CARO DOTTOR GRASLER
TTITLE2=LA VOGLIA MATTA
TTITLE3=JUST BEYOND THE HORIZON
TTITLE4=INCONTRO
TTITLE5=JONA CHE VISSE NELLA BALENA
TTITLE6=LE MANI SPORCHE
TTITLE7=CORREVA L'ANNO DI GRAZIA 1870
TTITLE8=ESCALATION
TTITLE9=STANNO TUTTI BENE
TTITLE10=QUANDO LE DONNE AVEVANO LA CODA
EXTD=YEAR: 2001
EXTT0=
EXTT1=
EXTT2=
EXTT3=
EXTT4=
EXTT5=
EXTT6=
EXTT7=
EXTT8=
EXTT9=
EXTT10=
PLAYORDER=
